<?xml version="1.0" encoding="utf-8"?>
<!-- Generator: Adobe Illustrator 17.0.0, SVG Export Plug-In . SVG Version: 6.00 Build 0)  -->
<!DOCTYPE svg PUBLIC "-//W3C//DTD SVG 1.1//EN" "http://www.w3.org/Graphics/SVG/1.1/DTD/svg11.dtd">
<svg version="1.1" id="Layer_1" xmlns="http://www.w3.org/2000/svg" xmlns:xlink="http://www.w3.org/1999/xlink" x="0px" y="0px"
	 width="162px" height="162px" viewBox="0 0 162 162" enable-background="new 0 0 162 162" xml:space="preserve">
<g>
	<polygon fill="#FFFFFF" points="14.146,45 14.146,54 68.706,85.5 68.706,139.5 14.146,108 14.146,117 76.5,153 76.5,81 	"/>
	<polygon fill="#FFFFFF" points="85.5,81.042 85.5,153.041 93.294,148.541 93.294,85.542 140.06,58.542 140.06,121.541 
		147.854,117.041 147.854,45.042 	"/>
	<path fill="#FFFFFF" d="M26.44,31.479l-7.794,4.5l62.353,36l62.354-36l-46.765-27l-54.56,31.5L26.44,31.479z M49.823,44.979
		l46.765-27l31.177,18l-46.765,27L49.823,44.979z"/>
</g>
</svg>
